<svg width="188" height="59" xmlns="http://www.w3.org/2000/svg" xmlns:xlink="http://www.w3.org/1999/xlink"><defs><linearGradient x1="0%" y1="50.706%" x2="100%" y2="50.706%" id="a"><stop stop-color="#F50" offset="0%"/><stop stop-color="#F50" offset="40.988%"/><stop stop-color="#FF2000" offset="58.198%"/><stop stop-color="#FF2000" offset="100%"/></linearGradient><linearGradient x1="2.148%" y1="50.706%" x2="100%" y2="50.706%" id="c"><stop stop-color="#FF452A" offset="0%"/><stop stop-color="#FF2000" offset="100%"/></linearGradient><path d="M38.184 5.781 33.183 0H15.615l-5.001 5.781s-4.392-1.243-6.466.87c0 0 5.856-.538 7.868 2.797 0 0 5.43 1.056 6.161 1.056.732 0 2.318-.621 3.782-1.118 1.464-.497 2.44-.501 2.44-.501s.976.004 2.44.5c1.464.498 3.05 1.12 3.782 1.12.732 0 6.16-1.057 6.16-1.057C38.794 6.113 44.65 6.65 44.65 6.65c-2.074-2.113-6.466-.87-6.466-.87" id="b"/></defs><g fill="none" fill-rule="evenodd"><g fill="#3B3E4F"><path d="M62.66 31.624V11.585h1.886c1.536 0 2.782 1.266 2.782 2.828v8.91c3.022-2.741 5.592-3.838 9.017-3.909 6.57-.136 12.272 4.824 12.814 11.481.647 7.954-5.043 13.94-12.455 13.94-8.138 0-14.044-5.13-14.044-13.211zm4.59 1.573c.46 4.14 4.35 7.56 8.452 7.626 5.343.083 8.985-3.457 8.985-8.694 0-5.237-3.56-8.695-8.753-8.695-5.552-.012-9.315 4.087-8.684 9.763zM96.946 19.915v3.57c2.937-3.313 4.676-4.203 8.113-4.203 1 0 1.999.083 2.986.244v4.74a11.888 11.888 0 0 0-3.234-.438c-2.489 0-4.578.828-6.11 2.393-1.344 1.37-1.743 2.443-1.743 4.596v13.199H92.12v-24.1h4.826zM109.193 27.885c.249-2.347.697-3.618 1.69-4.84 1.992-2.484 5.577-3.763 10.651-3.763 4.033 0 6.97.637 9.01 2.004 1.694 1.122 2.39 2.786 2.39 5.717v10.703c0 2.347.6 3.175 2.24 3.13.367-.013.733-.046 1.096-.1v3.226a7.078 7.078 0 0 1-2.537.389c-3.034 0-4.427-.927-5.372-3.619-2.986 2.787-6.073 3.958-10.5 3.958-5.922 0-9.556-2.736-9.556-7.187-.025-2.538 1.443-4.846 3.731-5.863 1.792-.782 2.888-1.026 8.012-1.565 4.378-.438 5.128-.538 6.37-.931 1.344-.439 1.943-1.172 1.943-2.393 0-2.592-2.139-3.764-6.619-3.764-4.236 0-6.419.853-7.295 3.031a2.889 2.889 0 0 1-2.667 1.855l-2.587.012zm19.143 4.107a46.702 46.702 0 0 1-9.408 1.76c-4.33.439-5.674 1.271-5.674 3.47 0 2.442 1.992 3.726 5.922 3.726 3.234 0 5.674-.828 7.417-2.443 1.393-1.32 1.743-2.248 1.743-4.554v-1.959zM147.951 44.012h-1.246a2.847 2.847 0 0 1-2.582-1.632l-10.439-22.465h2.9a4.26 4.26 0 0 1 3.922 2.555l6.965 16.147 7.197-16.21a4.26 4.26 0 0 1 3.902-2.508h2.635L150.52 42.405a2.847 2.847 0 0 1-2.57 1.607zM164.475 33.359c.497 4.645 4.073 7.527 9.405 7.527 3.026 0 5.295-.915 6.7-2.741a4.292 4.292 0 0 1 3.38-1.656h2.807c-2.444 5.473-6.819 8.164-13.34 8.164-8.145 0-13.636-5.034-13.636-12.561s5.625-12.806 13.739-12.806c5.869 0 10.59 2.687 12.491 7.187.847 2.07 1.194 3.909 1.194 6.89l-22.74-.004zm17.815-3.727c-1.095-4.252-4.33-6.649-8.81-6.649s-7.714 2.397-8.858 6.65h17.668z"/></g><g transform="translate(.6)"><path d="m47.09 13.985 1.342-3.356S46.724 8.764 44.65 6.65c-2.074-2.113-6.466-.87-6.466-.87L33.183 0H15.615l-5.001 5.781s-4.392-1.243-6.466.87S.366 10.63.366 10.63l1.342 3.356L0 18.956s5.023 19.384 5.612 21.75c1.159 4.662 1.952 6.464 5.246 8.825 3.293 2.362 9.271 6.464 10.247 7.085.976.621 2.196 1.68 3.294 1.68 1.098 0 2.318-1.059 3.294-1.68s6.953-4.723 10.247-7.085c3.294-2.361 4.087-4.163 5.246-8.824.589-2.367 5.612-21.75 5.612-21.75l-1.708-4.972z" fill="url(#a)"/><path d="M24.399 36.279c.334 0 2.477.77 4.196 1.677 1.72.906 2.965 1.547 3.363 1.8.399.255.156.734-.207.995s-5.238 4.107-5.71 4.532c-.474.426-1.17 1.128-1.642 1.128-.473 0-1.168-.702-1.641-1.128-.474-.425-5.348-4.27-5.711-4.532-.363-.261-.606-.74-.208-.994.399-.254 1.645-.895 3.364-1.801 1.719-.907 3.861-1.677 4.196-1.677zm.026-27.393c.164.004 1.09.05 2.414.5 1.464.497 3.05 1.118 3.782 1.118.732 0 6.16-1.056 6.16-1.056s6.434 7.923 6.434 9.617c0 1.693-.81 2.14-1.623 3.02l-4.824 5.22c-.456.493-1.407 1.242-.848 2.59.56 1.347 1.384 3.061.467 4.8-.917 1.74-2.488 2.9-3.494 2.708-1.007-.192-3.37-1.45-4.24-2.025-.869-.575-3.624-2.89-3.624-3.775 0-.886 2.848-2.476 3.374-2.837.526-.362 2.926-1.76 2.975-2.309.05-.549.03-.71-.678-2.066-.708-1.356-1.983-3.166-1.77-4.37.211-1.205 2.268-1.83 3.736-2.396 1.468-.564 4.294-1.63 4.647-1.797.353-.166.262-.324-.808-.427-1.07-.103-4.104-.514-5.472-.125-1.368.389-3.706.98-3.895 1.293-.19.314-.356.324-.162 1.405.194 1.082 1.195 6.27 1.293 7.192.097.922.287 1.53-.688 1.758-.976.227-2.618.622-3.182.622-.564 0-2.206-.395-3.182-.622-.975-.227-.785-.836-.688-1.758.097-.922 1.098-6.11 1.293-7.192.194-1.08.027-1.091-.162-1.405-.19-.313-2.527-.904-3.895-1.293-1.368-.389-4.403.022-5.472.125-1.07.103-1.161.261-.808.427.353.166 3.18 1.233 4.647 1.797 1.467.565 3.524 1.191 3.737 2.395.212 1.205-1.064 3.015-1.772 4.37-.708 1.357-.727 1.518-.677 2.067.049.549 2.448 1.947 2.975 2.309.526.36 3.373 1.951 3.373 2.837 0 .885-2.754 3.2-3.624 3.775-.869.575-3.233 1.833-4.239 2.025-1.006.192-2.577-.969-3.494-2.708-.917-1.739-.092-3.453.466-4.8.56-1.348-.39-2.097-.847-2.59l-4.824-5.22c-.814-.88-1.623-1.327-1.623-3.02 0-1.694 6.433-9.617 6.433-9.617s5.43 1.056 6.161 1.056c.732 0 2.318-.621 3.782-1.118 1.325-.45 2.25-.496 2.414-.5z" fill="#FFF"/><use fill="url(#c)" xlink:href="#b"/></g></g></svg>